<?xml version="1.0" encoding="UTF-8"?>
<svg xmlns="http://www.w3.org/2000/svg" version="1.1" width="200" height="200" viewBox="0 0 200 200"><rect x="0" y="0" width="200" height="200" fill="#ffffff"/><g transform="scale(6.897)"><g transform="translate(0,0)"><path fill-rule="evenodd" d="M9 0L9 1L8 1L8 2L9 2L9 3L8 3L8 4L10 4L10 7L11 7L11 4L12 4L12 5L13 5L13 6L12 6L12 7L13 7L13 6L14 6L14 8L12 8L12 9L11 9L11 8L6 8L6 9L5 9L5 8L0 8L0 11L2 11L2 10L1 10L1 9L3 9L3 10L4 10L4 9L5 9L5 12L4 12L4 13L3 13L3 12L2 12L2 13L1 13L1 14L0 14L0 15L2 15L2 14L4 14L4 13L5 13L5 14L6 14L6 15L7 15L7 14L6 14L6 13L7 13L7 12L6 12L6 11L7 11L7 10L6 10L6 9L8 9L8 10L9 10L9 11L8 11L8 14L9 14L9 15L8 15L8 18L9 18L9 19L8 19L8 20L6 20L6 19L7 19L7 18L6 18L6 19L5 19L5 17L7 17L7 16L5 16L5 15L4 15L4 16L2 16L2 17L4 17L4 18L3 18L3 19L4 19L4 21L5 21L5 20L6 20L6 21L8 21L8 23L10 23L10 24L8 24L8 29L9 29L9 28L10 28L10 29L14 29L14 28L12 28L12 27L9 27L9 25L10 25L10 24L11 24L11 26L12 26L12 25L14 25L14 26L13 26L13 27L16 27L16 28L17 28L17 29L19 29L19 28L22 28L22 27L23 27L23 26L24 26L24 27L26 27L26 26L24 26L24 25L28 25L28 26L27 26L27 28L24 28L24 29L27 29L27 28L28 28L28 26L29 26L29 25L28 25L28 24L25 24L25 23L27 23L27 22L29 22L29 20L28 20L28 19L27 19L27 16L28 16L28 15L27 15L27 12L28 12L28 11L27 11L27 12L25 12L25 9L26 9L26 8L25 8L25 9L24 9L24 8L23 8L23 9L22 9L22 8L20 8L20 9L18 9L18 8L16 8L16 7L17 7L17 5L15 5L15 4L18 4L18 5L20 5L20 3L21 3L21 0L18 0L18 1L20 1L20 2L18 2L18 3L15 3L15 2L16 2L16 1L17 1L17 0L16 0L16 1L15 1L15 2L14 2L14 1L11 1L11 2L10 2L10 0ZM12 2L12 3L14 3L14 4L13 4L13 5L14 5L14 4L15 4L15 3L14 3L14 2ZM10 3L10 4L11 4L11 3ZM18 3L18 4L19 4L19 3ZM8 5L8 7L9 7L9 5ZM15 6L15 7L16 7L16 6ZM18 6L18 7L19 7L19 6ZM20 6L20 7L21 7L21 6ZM27 8L27 9L28 9L28 10L29 10L29 9L28 9L28 8ZM10 9L10 11L12 11L12 12L10 12L10 13L9 13L9 14L10 14L10 16L9 16L9 17L10 17L10 18L11 18L11 19L9 19L9 20L8 20L8 21L11 21L11 20L14 20L14 19L15 19L15 20L16 20L16 19L17 19L17 20L18 20L18 21L12 21L12 22L10 22L10 23L11 23L11 24L12 24L12 23L13 23L13 24L14 24L14 25L15 25L15 26L17 26L17 28L19 28L19 27L20 27L20 23L19 23L19 22L18 22L18 21L19 21L19 20L21 20L21 19L22 19L22 18L21 18L21 17L20 17L20 16L21 16L21 14L22 14L22 17L23 17L23 18L24 18L24 19L25 19L25 21L26 21L26 20L27 20L27 19L25 19L25 18L24 18L24 17L26 17L26 16L27 16L27 15L26 15L26 13L25 13L25 12L24 12L24 9L23 9L23 12L22 12L22 13L20 13L20 12L21 12L21 11L22 11L22 10L21 10L21 9L20 9L20 10L17 10L17 9L12 9L12 10L11 10L11 9ZM13 10L13 11L14 11L14 10ZM15 10L15 11L16 11L16 10ZM5 12L5 13L6 13L6 12ZM12 12L12 13L10 13L10 14L12 14L12 13L16 13L16 14L13 14L13 15L12 15L12 17L11 17L11 16L10 16L10 17L11 17L11 18L12 18L12 17L13 17L13 18L15 18L15 19L16 19L16 18L15 18L15 17L17 17L17 19L18 19L18 20L19 20L19 19L18 19L18 18L20 18L20 17L18 17L18 16L15 16L15 17L14 17L14 16L13 16L13 15L17 15L17 13L18 13L18 15L19 15L19 14L20 14L20 13L18 13L18 12L17 12L17 13L16 13L16 12ZM23 12L23 13L22 13L22 14L23 14L23 13L24 13L24 14L25 14L25 13L24 13L24 12ZM28 13L28 14L29 14L29 13ZM23 15L23 16L24 16L24 15ZM4 16L4 17L5 17L5 16ZM0 17L0 21L1 21L1 17ZM28 17L28 18L29 18L29 17ZM21 21L21 24L24 24L24 21ZM15 22L15 23L14 23L14 24L15 24L15 25L18 25L18 26L19 26L19 25L18 25L18 24L19 24L19 23L18 23L18 24L17 24L17 23L16 23L16 22ZM22 22L22 23L23 23L23 22ZM15 23L15 24L16 24L16 23ZM22 25L22 26L21 26L21 27L22 27L22 26L23 26L23 25ZM0 0L0 7L7 7L7 0ZM1 1L1 6L6 6L6 1ZM2 2L2 5L5 5L5 2ZM22 0L22 7L29 7L29 0ZM23 1L23 6L28 6L28 1ZM24 2L24 5L27 5L27 2ZM0 22L0 29L7 29L7 22ZM1 23L1 28L6 28L6 23ZM2 24L2 27L5 27L5 24Z" fill="#000000"/></g></g></svg>
